# xmcd
#
# Track frame offsets: 
#        200
#        13405
#        30617
#        42390
#        60395
#        76290
#        96480
#        108565
#        128995
#        143397
#        156350
#        179212
#
# Disc length: 2560 seconds
#
# Revision: 2
# Processed by: cddbd v1.5.2PL0 Copyright (c) Steve Scherf et al.
# Submitted via: ExactAudioCopyFreeDBPlugin 1.0
#
DISCID=a709fe0c
DTITLE=Eddy Clearwater - Help Yourself
DYEAR=1992
DGENRE=Blues
TTITLE0=Who Loves You Baby
TTITLE1=Help Yourself
TTITLE2=Set It Out
TTITLE3=All Your Love
TTITLE4=Chicago Weather Woman
TTITLE5=Crossover
TTITLE6=That's My Baby
TTITLE7=Big Time Gambler
TTITLE8=Little Bit Of Blues
TTITLE9=Poison Ivy
TTITLE10=Messed Up World
TTITLE11=We're Out Here
EXTD=
EXTT0=
EXTT1=
EXTT2=
EXTT3=
EXTT4=
EXTT5=
EXTT6=
EXTT7=
EXTT8=
EXTT9=
EXTT10=
EXTT11=
PLAYORDER=
